<svg xmlns="http://www.w3.org/2000/svg" style="display: none;">
    <symbol id="film" viewBox="0 0 32 32">
      <title>film icon</title>
      <path stroke="#449FDB" d="M0 0"/><path d="M0 4v24h32V4H0zm6 22H2v-4h4v4zm0-8H2v-4h4v4zm0-8H2V6h4v4zm18 16H8V6h16v20zm6 0h-4v-4h4v4zm0-8h-4v-4h4v4zm0-8h-4V6h4v4zm-18 0v12l8-6z"/>
    </symbol>

    <symbol id="home" viewBox="0 0 32 32">
      <title>home icon</title>
      <path stroke="#449FDB" d="M0 0"/><path d="M16 2L0 18l3 3 3-3 2 12h6v-6h4v6h6l2-12 3 3 3-3L16 2zm0 12.828c-1.562 0-2.83-1.266-2.83-2.828S14.438 9.172 16 9.172c1.562 0 2.828 1.266 2.828 2.828S17.562 14.828 16 14.828z"/>
    </symbol>

    <symbol id="quill" viewBox="0 0 32 32">
      <title>quill icon</title>
      <path stroke="#449FDB" d="M0 0"/><path d="M12 18.333s6.373-3.824 9.96-2.313c.745-1.133 1.478-2.354 2.195-3.6-3.51-.86-8.155-.087-8.155-.087s5.944-3.566 9.583-2.45c.73-1.316 1.44-2.614 2.124-3.822-2.9-.195-5.707.273-5.707.273S25.723 4.1 29.08 3.72C30.138 2.008 31.12.663 32 0 14.47 0 4 20 0 32h2l6-10s2 2 8 0c1.42-.474 2.842-1.79 4.237-3.56-3.52-.892-8.237-.106-8.237-.106z"/>
    </symbol>
</svg>